<svg xmlns="http://www.w3.org/2000/svg" width="1000" height="760" viewBox="0 0 1000 760">
  <defs><linearGradient id="g" x1="0" x2="1" y1="0" y2="1"><stop stop-color="#f4f8ff"/><stop offset="1" stop-color="#eaf3ff"/></linearGradient><filter id="s"><feDropShadow dx="0" dy="18" stdDeviation="18" flood-color="#061635" flood-opacity=".18"/></filter></defs>
  <rect width="1000" height="760" rx="36" fill="url(#g)"/>
  <path d="M701 0h299v760H565c94-111 116-208 69-291-44-77-123-109-108-221C540 142 608 63 701 0Z" fill="#043B9C" opacity=".92"/>
  <path d="M760 0h240v332c-76-18-137-53-183-104-57-63-76-139-57-228Z" fill="#FF6B1A" opacity=".92"/>
  <g filter="url(#s)">
    <rect x="92" y="120" width="594" height="440" rx="32" fill="#fff"/>
    <rect x="136" y="170" width="510" height="70" rx="18" fill="#043B9C" opacity=".96"/>
    <text x="166" y="216" font-family="Arial Black, Arial" font-size="30" fill="#fff">TECHFLEX TT LIMITED</text>
    <rect x="136" y="286" width="164" height="130" rx="22" fill="#f0f6ff"/>
    <rect x="328" y="286" width="164" height="130" rx="22" fill="#fff4eb"/>
    <rect x="520" y="286" width="126" height="130" rx="22" fill="#f0f6ff"/>
    <circle cx="218" cy="351" r="34" fill="#0A58C8" opacity=".9"/><circle cx="410" cy="351" r="34" fill="#FF6B1A" opacity=".95"/><circle cx="583" cy="351" r="34" fill="#0A58C8" opacity=".9"/>
    <rect x="136" y="458" width="390" height="18" rx="9" fill="#7284a3" opacity=".38"/>
    <rect x="136" y="498" width="282" height="18" rx="9" fill="#7284a3" opacity=".28"/>
  </g>
  <g opacity=".25" fill="#fff"><circle cx="804" cy="430" r="6"/><circle cx="856" cy="430" r="6"/><circle cx="908" cy="430" r="6"/><circle cx="804" cy="482" r="6"/><circle cx="856" cy="482" r="6"/><circle cx="908" cy="482" r="6"/><circle cx="804" cy="534" r="6"/><circle cx="856" cy="534" r="6"/><circle cx="908" cy="534" r="6"/></g>
</svg>
