<svg xmlns="http://www.w3.org/2000/svg" width="1100" height="860" viewBox="0 0 1100 860">
  <defs>
    <linearGradient id="bg" x1="0" x2="1" y1="0" y2="1"><stop stop-color="#062e73"/><stop offset=".55" stop-color="#0558bc"/><stop offset="1" stop-color="#ff6b1a"/></linearGradient>
    <linearGradient id="screen" x1="0" x2="1"><stop stop-color="#071a3d"/><stop offset="1" stop-color="#0d58cf"/></linearGradient>
    <filter id="shadow" x="-20%" y="-20%" width="140%" height="150%"><feDropShadow dx="0" dy="24" stdDeviation="28" flood-color="#061635" flood-opacity=".35"/></filter>
  </defs>
  <rect width="1100" height="860" fill="none"/>
  <path d="M425 48C608-34 875 6 1009 180c125 163 100 429-45 567-133 126-376 134-563 71C219 757 86 626 89 456 91 278 240 131 425 48Z" fill="url(#bg)" opacity=".96"/>
  <g opacity=".25" fill="#fff">
    <circle cx="815" cy="128" r="6"/><circle cx="870" cy="128" r="6"/><circle cx="925" cy="128" r="6"/><circle cx="980" cy="128" r="6"/>
    <circle cx="815" cy="183" r="6"/><circle cx="870" cy="183" r="6"/><circle cx="925" cy="183" r="6"/><circle cx="980" cy="183" r="6"/>
    <circle cx="815" cy="238" r="6"/><circle cx="870" cy="238" r="6"/><circle cx="925" cy="238" r="6"/><circle cx="980" cy="238" r="6"/>
    <circle cx="815" cy="293" r="6"/><circle cx="870" cy="293" r="6"/><circle cx="925" cy="293" r="6"/><circle cx="980" cy="293" r="6"/>
  </g>
  <g filter="url(#shadow)">
    <rect x="265" y="228" width="560" height="340" rx="28" fill="#101d36"/>
    <rect x="292" y="255" width="506" height="286" rx="14" fill="url(#screen)"/>
    <path d="M468 569h154l34 78H434Z" fill="#0a1530"/>
    <rect x="395" y="640" width="300" height="24" rx="12" fill="#14264a"/>
    <g fill="#fff" opacity=".9">
      <rect x="342" y="315" width="150" height="26" rx="13" opacity=".95"/>
      <rect x="342" y="365" width="300" height="16" rx="8" opacity=".36"/>
      <rect x="342" y="397" width="245" height="16" rx="8" opacity=".26"/>
      <rect x="342" y="448" width="95" height="42" rx="14" opacity=".96"/>
      <rect x="458" y="448" width="95" height="42" rx="14" opacity=".55"/>
    </g>
    <g transform="translate(634 313)">
      <circle cx="34" cy="34" r="34" fill="#ff6b1a"/>
      <circle cx="134" cy="30" r="25" fill="#fff" opacity=".92"/>
      <circle cx="128" cy="128" r="38" fill="#15d6ff" opacity=".8"/>
      <circle cx="45" cy="146" r="21" fill="#fff" opacity=".8"/>
      <path d="M60 45 114 34M126 55 131 91M103 135 66 146" stroke="#fff" stroke-width="6" stroke-linecap="round" opacity=".55"/>
    </g>
  </g>
  <g filter="url(#shadow)">
    <rect x="76" y="532" width="270" height="160" rx="26" fill="#fff"/>
    <rect x="104" y="560" width="72" height="72" rx="19" fill="#eef5ff"/>
    <path d="M126 592h28M140 578v28" stroke="#ff6b1a" stroke-width="8" stroke-linecap="round"/>
    <text x="198" y="590" font-family="Arial Black, Arial" font-size="22" fill="#043B9C">Rentals</text>
    <text x="198" y="624" font-family="Arial" font-size="18" fill="#60708d">Laptops • Projectors</text>
    <text x="198" y="653" font-family="Arial" font-size="18" fill="#60708d">Events • Business</text>
  </g>
  <g filter="url(#shadow)">
    <rect x="770" y="592" width="250" height="128" rx="24" fill="#fff"/>
    <text x="806" y="638" font-family="Arial Black, Arial" font-size="22" fill="#043B9C">Support</text>
    <text x="806" y="674" font-family="Arial" font-size="18" fill="#60708d">Setup, networking</text>
    <text x="806" y="700" font-family="Arial" font-size="18" fill="#60708d">and repairs</text>
  </g>
</svg>
