<svg xmlns="http://www.w3.org/2000/svg" width="820" height="1040" viewBox="0 0 820 1040">
  <defs><linearGradient id="a" x1="0" x2="1" y1="0" y2="1"><stop stop-color="#052B6D"/><stop offset=".56" stop-color="#063C9D"/><stop offset="1" stop-color="#FF6B1A"/></linearGradient><filter id="s"><feDropShadow dx="0" dy="22" stdDeviation="24" flood-color="#02142F" flood-opacity=".28"/></filter></defs>
  <rect width="820" height="1040" rx="46" fill="url(#a)"/>
  <path d="M534-48c112 93 166 182 154 293-13 120-100 161-75 276 22 103 105 143 89 250-18 123-152 222-301 214-137-8-242-103-260-220-19-124 74-202 48-332-22-109-111-135-101-250C100 51 281-60 534-48Z" fill="#fff" opacity=".08"/>
  <g opacity=".26" fill="#fff"><circle cx="598" cy="104" r="5"/><circle cx="646" cy="104" r="5"/><circle cx="694" cy="104" r="5"/><circle cx="598" cy="152" r="5"/><circle cx="646" cy="152" r="5"/><circle cx="694" cy="152" r="5"/><circle cx="598" cy="200" r="5"/><circle cx="646" cy="200" r="5"/><circle cx="694" cy="200" r="5"/></g>
  <text x="68" y="122" font-family="Arial Black, Arial" font-size="58" fill="#fff">LONG TERM</text>
  <text x="68" y="194" font-family="Arial Black, Arial" font-size="58" fill="#FFB12A">&amp; SHORT TERM</text>
  <text x="68" y="256" font-family="Arial Black, Arial" font-size="42" fill="#fff">Rentals available.</text>
  <rect x="70" y="292" width="170" height="10" rx="5" fill="#FF6B1A"/>
  <g filter="url(#s)">
    <rect x="88" y="438" width="642" height="344" rx="34" fill="#fff"/>
    <rect x="134" y="486" width="246" height="160" rx="18" fill="#ecf4ff"/>
    <rect x="162" y="516" width="190" height="20" rx="10" fill="#0A58C8" opacity=".84"/>
    <rect x="162" y="558" width="150" height="14" rx="7" fill="#8aa3c7" opacity=".7"/>
    <rect x="162" y="588" width="112" height="14" rx="7" fill="#8aa3c7" opacity=".5"/>
    <rect x="420" y="486" width="232" height="160" rx="18" fill="#fff5ed"/>
    <path d="M468 566h134M536 508v116" stroke="#FF6B1A" stroke-width="18" stroke-linecap="round"/>
    <rect x="134" y="690" width="516" height="28" rx="14" fill="#071C44" opacity=".9"/>
    <rect x="134" y="738" width="380" height="20" rx="10" fill="#8aa3c7" opacity=".55"/>
  </g>
  <text x="74" y="893" font-family="Arial" font-size="28" fill="#fff" font-weight="700">Laptops • Desktops • Tablets • Displays • Projectors</text>
  <text x="74" y="945" font-family="Arial" font-size="22" fill="#fff" opacity=".78">Built for training, events, offices, schools and teams.</text>
</svg>
